<svg xmlns="http://www.w3.org/2000/svg" viewBox="0 0 60.6 59.8"><title>アセット 1</title><g id="レイヤー_2" data-name="レイヤー 2"><g id="レイヤー_1-2" data-name="レイヤー 1"><polygon points="3.7 54.1 56.9 54.1 56.9 49.5 3.7 50.6 3.7 54.1"/><polygon points="3.7 58.7 56.9 59.8 56.9 55.3 3.7 55.3 3.7 58.7"/><path d="M18.1,39.9v2.6c0,2.7,5.4,4.9,12.2,4.9s12.2-2.2,12.2-4.9V39.9A30.18,30.18,0,0,0,60.6,12.2C60.6,5.5,47.1,0,30.3,0S0,5.4,0,12.2A30.23,30.23,0,0,0,18.1,39.9ZM5,12.2c0-.3,1.1-2.1,5.8-4A56,56,0,0,1,30.3,5c7.4,0,14.5,1.2,19.6,3.2,4.7,1.9,5.8,3.7,5.8,4s-1.1,2.1-5.8,4c-5.1,2-12.2,3.2-19.6,3.2s-14.5-1.2-19.5-3.2C6.1,14.4,5,12.5,5,12.2Z"/></g></g></svg>