<svg xmlns="http://www.w3.org/2000/svg" viewBox="0 0 70.8 55.1"><title>アセット 1</title><g id="レイヤー_2" data-name="レイヤー 2"><g id="レイヤー_1-2" data-name="レイヤー 1"><path d="M35.3,23.2a8.7,8.7,0,1,0,8.6,8.7A8.62,8.62,0,0,0,35.3,23.2Z"/><path d="M66.2,10.9H58.1a4.65,4.65,0,0,1-4.2-2.7L51.5,2.7A4.48,4.48,0,0,0,47.3,0H23.5a4.65,4.65,0,0,0-4.2,2.7L16.9,8.2a4.48,4.48,0,0,1-4.2,2.7H4.6A4.65,4.65,0,0,0,0,15.5v35a4.59,4.59,0,0,0,4.6,4.6H66.2a4.65,4.65,0,0,0,4.6-4.6v-35A4.65,4.65,0,0,0,66.2,10.9ZM35.3,48.1A16.1,16.1,0,1,1,51.3,32,16.07,16.07,0,0,1,35.3,48.1Z"/></g></g></svg>