<svg xmlns="http://www.w3.org/2000/svg" viewBox="0 0 65.6 55.23"><title>アセット 1</title><g id="レイヤー_2" data-name="レイヤー 2"><g id="レイヤー_1-2" data-name="レイヤー 1"><path d="M64.9,31.63a11.05,11.05,0,0,0-2.7-3.7,23.75,23.75,0,0,0-5.7-3.8,1.82,1.82,0,0,0-2.5.7,2,2,0,0,0,.7,2.6c5.5,3.7,6.4,8.2,2.4,12.9a18.25,18.25,0,0,1-5.1,3.8c-3.8,2.1-11.7,4-19.2,4s-15.4-1.9-19.2-4a18.25,18.25,0,0,1-5.1-3.8c-4-4.7-3.1-9.2,2.4-12.9a2.06,2.06,0,0,0,.7-2.6,1.82,1.82,0,0,0-2.5-.7,22,22,0,0,0-5.7,3.8,12.61,12.61,0,0,0-2.7,3.7,11.58,11.58,0,0,0-.7,4.2,13.17,13.17,0,0,0,.8,4.4,15.23,15.23,0,0,0,4.6,6.4,32.7,32.7,0,0,0,11.7,6.3,51.75,51.75,0,0,0,15.7,2.3,51.75,51.75,0,0,0,15.7-2.3,31.87,31.87,0,0,0,11.7-6.3,18,18,0,0,0,4.6-6.4,13.17,13.17,0,0,0,.8-4.4A14.78,14.78,0,0,0,64.9,31.63Z"/><path d="M30.7,35.13a10.54,10.54,0,0,0,2.9,4q1.35,1.05,2.1.6c.5-.3.7-1.1.5-2.2s-.7-2.4-1-4a32.13,32.13,0,0,1-.5-5.8,18.41,18.41,0,0,1,.3-3.3,19.81,19.81,0,0,1,1.1-3.5,19.73,19.73,0,0,0,1.3-4.5,23.73,23.73,0,0,0,.3-4.5,21.81,21.81,0,0,0-1.6-7.2,10.54,10.54,0,0,0-2.9-4Q31.85-.32,31.1.13c-.5.3-.7,1.1-.5,2.2s.7,2.4,1,4a32.13,32.13,0,0,1,.5,5.8,18.41,18.41,0,0,1-.3,3.3,19.81,19.81,0,0,1-1.1,3.5,19.73,19.73,0,0,0-1.3,4.5,23.73,23.73,0,0,0-.3,4.5A19.11,19.11,0,0,0,30.7,35.13Z"/><path d="M42.2,30.54a13.3,13.3,0,0,0,1.1,3A8.94,8.94,0,0,0,46.2,37c.9.6,1.5.7,2.1.4s.6-1.1.4-2.1-.6-2.2-.9-3.5a23.4,23.4,0,0,1-.5-5,13.33,13.33,0,0,1,.3-2.8,19,19,0,0,1,1.1-3,23.53,23.53,0,0,0,1.4-4,15.41,15.41,0,0,0,.3-4.2,20.82,20.82,0,0,0-.5-3.6,13.3,13.3,0,0,0-1.1-3,8.94,8.94,0,0,0-2.9-3.5c-.9-.6-1.5-.7-2.1-.4s-.6,1.1-.4,2.1.6,2.2.9,3.5a23.4,23.4,0,0,1,.5,5,13.33,13.33,0,0,1-.3,2.8,19,19,0,0,1-1.1,3,23.53,23.53,0,0,0-1.4,4,15.41,15.41,0,0,0-.3,4.2A13,13,0,0,0,42.2,30.54Z"/><path d="M16.6,30.54a13.3,13.3,0,0,0,1.1,3A8.94,8.94,0,0,0,20.6,37c.9.6,1.5.7,2.1.4s.6-1.1.4-2.1-.6-2.2-.9-3.5a23.4,23.4,0,0,1-.5-5A13.33,13.33,0,0,1,22,24a19,19,0,0,1,1.1-3,23.53,23.53,0,0,0,1.4-4,15.41,15.41,0,0,0,.3-4.2,20.82,20.82,0,0,0-.5-3.6,13.3,13.3,0,0,0-1.1-3,8.94,8.94,0,0,0-2.9-3.5c-.9-.6-1.5-.7-2.1-.4s-.6,1.1-.4,2.1.6,2.1.9,3.5a23.4,23.4,0,0,1,.5,5,13.33,13.33,0,0,1-.3,2.8,19,19,0,0,1-1.1,3,23.53,23.53,0,0,0-1.4,4,15.41,15.41,0,0,0-.3,4.2A18.39,18.39,0,0,0,16.6,30.54Z"/></g></g></svg>