<svg xmlns="http://www.w3.org/2000/svg" viewBox="0 0 44.83 65.31"><title>アセット 1</title><g id="レイヤー_2" data-name="レイヤー 2"><g id="レイヤー_1-2" data-name="レイヤー 1"><path d="M22.61,12.4a6.23,6.23,0,0,0,6.2-6.2,6.2,6.2,0,0,0-12.4,0A6.17,6.17,0,0,0,22.61,12.4Z"/><path d="M36,50.9l-2.9-15.1-1.3-13.4c-.8-8.9-9.4-8.2-13.6-4.1l-7,7.2-6.5,2.1-1.3-7.3a1.47,1.47,0,1,0-2.9.5l1.4,7.7-.2.1a2.51,2.51,0,0,0-1.6,3.1v.1a2.71,2.71,0,0,0,2.6,1.8l5.4,30.5a1.47,1.47,0,1,0,2.9-.5L5.61,33l5.8-1.3a10.08,10.08,0,0,0,3.8-1.7L19,27.4l1.3,10.2a25.25,25.25,0,0,1-1,4.6l-5.7,19.4a2.94,2.94,0,0,0,2,3.6h.1a3.06,3.06,0,0,0,3.6-1.8l7.9-18.9,2,8.6a5.83,5.83,0,0,0,1.1,1.5l9.1,9.7a2.81,2.81,0,0,0,3.9.1l.1-.1a3,3,0,0,0,1-2,3.14,3.14,0,0,0-.7-2.1Z"/><path d="M41.21,34.7a4.2,4.2,0,0,0,2.7-1.4,3.76,3.76,0,0,0,.9-2.9l-.9-9.3a3.94,3.94,0,0,0-4.3-3.6l-4.8.4L36.41,35Z"/></g></g></svg>