<svg xmlns="http://www.w3.org/2000/svg" viewBox="0 0 65.2 61.77"><title>アセット 3</title><g id="レイヤー_2" data-name="レイヤー 2"><g id="レイヤー_1-2" data-name="レイヤー 1"><path d="M65.1,26.77c-.1-.1-4.2-2.9-4.2-2.9a.81.81,0,0,1-.3-.9s1.6-4.7,1.6-4.8a.37.37,0,0,0-.1-.3c-1-.6-7.8-3.2-16.2-3.5C43,6.47,38.4.77,37.5.08a.19.19,0,0,0-.3,0c-.1.1-4.1,3.1-4.1,3.1a.91.91,0,0,1-1,0s-4-3-4.1-3.1a.19.19,0,0,0-.3,0c-.9.7-5.5,6.4-8.4,14.3-8.4.3-15.2,2.9-16.2,3.5a.37.37,0,0,0-.1.3c0,.1,1.6,4.8,1.6,4.8a.81.81,0,0,1-.3.9S.2,26.77.1,26.77a.37.37,0,0,0-.1.3c.4,1.1,4.4,7.2,11,12.4C8.7,47.57,9.1,54.87,9.4,56c0,.1.1.2.3.2l5.1-.1a.76.76,0,0,1,.8.6s1.5,4.8,1.5,4.9.1.2.3.2a44.13,44.13,0,0,0,15.2-6.6,44.13,44.13,0,0,0,15.2,6.6c.1,0,.2-.1.3-.2s1.5-4.9,1.5-4.9a.87.87,0,0,1,.8-.6l5.1.1c.1,0,.2-.1.3-.2.3-1.1.7-8.3-1.6-16.4,6.6-5.2,10.6-11.4,11-12.4C65.2,27,65.2,26.77,65.1,26.77Zm-43.9,5.7a2.1,2.1,0,1,1,2.1,2.1A2.18,2.18,0,0,1,21.2,32.47Zm6.3,8.1a2.05,2.05,0,1,1,0-2.9A1.89,1.89,0,0,1,27.5,40.57Zm0-13.3a2.05,2.05,0,1,1,0-2.9A1.89,1.89,0,0,1,27.5,27.27ZM32.7,21a2.1,2.1,0,1,1,0,4.2,2.11,2.11,0,0,1-2.1-2.1A2.18,2.18,0,0,1,32.7,21Zm0,23a2.1,2.1,0,1,1,0-4.2,2.1,2.1,0,0,1,0,4.2Zm0-8.6a2.9,2.9,0,1,1,2.9-2.9A2.9,2.9,0,0,1,32.7,35.37ZM38,24.27a2.05,2.05,0,1,1,0,2.9A1.89,1.89,0,0,1,38,24.27Zm2.9,16.3a2.05,2.05,0,1,1,0-2.9A2.05,2.05,0,0,1,40.9,40.57Zm1.3-6a2.05,2.05,0,0,1-2.1-2.1,2.1,2.1,0,1,1,4.2,0A2.18,2.18,0,0,1,42.2,34.57Z"/></g></g></svg>